<mxfile host="app.diagrams.net" modified="2022-10-09T07:35:41.918Z" agent="5.0 (Macintosh; Intel Mac OS X 10_15_7) AppleWebKit/537.36 (KHTML, like Gecko) Chrome/105.0.0.0 Safari/537.36" etag="SJF1PfAeXvw1CBK6s0sh" version="20.2.2" type="github">
  <diagram id="QT_raF1ciG9IZEFF9iSL" name="第 1 页">
    <mxGraphModel dx="1426" dy="826" grid="1" gridSize="10" guides="1" tooltips="1" connect="1" arrows="1" fold="1" page="1" pageScale="1" pageWidth="1654" pageHeight="2336" math="0" shadow="0">
      <root>
        <mxCell id="0" />
        <mxCell id="1" parent="0" />
        <mxCell id="xhJQGYLbFev4tCfvozCH-38" value="抽帧" style="rounded=1;whiteSpace=wrap;html=1;fillColor=#dae8fc;strokeColor=#6c8ebf;" vertex="1" parent="1">
          <mxGeometry x="330" y="220" width="140" height="120" as="geometry" />
        </mxCell>
        <mxCell id="xhJQGYLbFev4tCfvozCH-39" value="IR 处理" style="rounded=1;whiteSpace=wrap;html=1;fillColor=#dae8fc;strokeColor=#6c8ebf;" vertex="1" parent="1">
          <mxGeometry x="330" y="370" width="140" height="90" as="geometry" />
        </mxCell>
        <mxCell id="xhJQGYLbFev4tCfvozCH-40" value="质检" style="rounded=1;whiteSpace=wrap;html=1;fillColor=#dae8fc;strokeColor=#6c8ebf;" vertex="1" parent="1">
          <mxGeometry x="330" y="480" width="140" height="90" as="geometry" />
        </mxCell>
        <mxCell id="xhJQGYLbFev4tCfvozCH-41" value="目标检测" style="rounded=1;whiteSpace=wrap;html=1;fillColor=#dae8fc;strokeColor=#6c8ebf;" vertex="1" parent="1">
          <mxGeometry x="330" y="590" width="140" height="90" as="geometry" />
        </mxCell>
        <mxCell id="xhJQGYLbFev4tCfvozCH-52" value="AJob" style="rounded=1;whiteSpace=wrap;html=1;labelPosition=center;verticalLabelPosition=top;align=center;verticalAlign=bottom;fillColor=#dae8fc;strokeColor=#6c8ebf;" vertex="1" parent="1">
          <mxGeometry x="500" y="480" width="780" height="90" as="geometry" />
        </mxCell>
        <mxCell id="xhJQGYLbFev4tCfvozCH-53" value="DataMaster" style="rounded=1;whiteSpace=wrap;html=1;fillColor=#bac8d3;strokeColor=#23445d;" vertex="1" parent="1">
          <mxGeometry x="620" y="495" width="540" height="60" as="geometry" />
        </mxCell>
        <mxCell id="xhJQGYLbFev4tCfvozCH-54" value="AJob" style="rounded=1;whiteSpace=wrap;html=1;labelPosition=center;verticalLabelPosition=top;align=center;verticalAlign=bottom;fillColor=#dae8fc;strokeColor=#6c8ebf;" vertex="1" parent="1">
          <mxGeometry x="500" y="590" width="340" height="90" as="geometry" />
        </mxCell>
        <mxCell id="xhJQGYLbFev4tCfvozCH-55" value="reinf" style="rounded=1;whiteSpace=wrap;html=1;fillColor=#bac8d3;strokeColor=#23445d;" vertex="1" parent="1">
          <mxGeometry x="545" y="605" width="265" height="60" as="geometry" />
        </mxCell>
        <mxCell id="xhJQGYLbFev4tCfvozCH-57" value="Fluentbit" style="rounded=1;whiteSpace=wrap;html=1;fillColor=#bac8d3;strokeColor=#23445d;" vertex="1" parent="1">
          <mxGeometry x="1300" y="220" width="90" height="460" as="geometry" />
        </mxCell>
        <mxCell id="xhJQGYLbFev4tCfvozCH-60" value="AJob" style="rounded=1;whiteSpace=wrap;html=1;labelPosition=center;verticalLabelPosition=top;align=center;verticalAlign=bottom;fillColor=#dae8fc;strokeColor=#6c8ebf;" vertex="1" parent="1">
          <mxGeometry x="930" y="590" width="340" height="90" as="geometry" />
        </mxCell>
        <mxCell id="xhJQGYLbFev4tCfvozCH-61" value="reinf" style="rounded=1;whiteSpace=wrap;html=1;fillColor=#bac8d3;strokeColor=#23445d;" vertex="1" parent="1">
          <mxGeometry x="970" y="605" width="260" height="60" as="geometry" />
        </mxCell>
        <mxCell id="xhJQGYLbFev4tCfvozCH-70" value="" style="group;labelPosition=center;verticalLabelPosition=top;align=center;verticalAlign=bottom;" vertex="1" connectable="0" parent="1">
          <mxGeometry x="500" y="220" width="350" height="130" as="geometry" />
        </mxCell>
        <mxCell id="xhJQGYLbFev4tCfvozCH-42" value="AJob" style="rounded=1;whiteSpace=wrap;html=1;fillColor=#dae8fc;strokeColor=#6c8ebf;labelPosition=center;verticalLabelPosition=top;align=center;verticalAlign=bottom;" vertex="1" parent="xhJQGYLbFev4tCfvozCH-70">
          <mxGeometry width="350" height="130" as="geometry" />
        </mxCell>
        <mxCell id="xhJQGYLbFev4tCfvozCH-43" value="&lt;font style=&quot;font-size: 8px;&quot;&gt;FFMpeg&lt;/font&gt;" style="rounded=1;whiteSpace=wrap;html=1;fillColor=#f8cecc;strokeColor=#b85450;" vertex="1" parent="xhJQGYLbFev4tCfvozCH-70">
          <mxGeometry x="32.8125" y="13" width="65.625" height="39" as="geometry" />
        </mxCell>
        <mxCell id="xhJQGYLbFev4tCfvozCH-44" value="OpenCV" style="rounded=1;whiteSpace=wrap;html=1;fillColor=#f8cecc;strokeColor=#b85450;" vertex="1" parent="xhJQGYLbFev4tCfvozCH-70">
          <mxGeometry x="142.18750000000003" y="13" width="65.625" height="39" as="geometry" />
        </mxCell>
        <mxCell id="xhJQGYLbFev4tCfvozCH-49" style="edgeStyle=orthogonalEdgeStyle;rounded=0;orthogonalLoop=1;jettySize=auto;html=1;exitX=0.5;exitY=1;exitDx=0;exitDy=0;" edge="1" parent="xhJQGYLbFev4tCfvozCH-70" source="xhJQGYLbFev4tCfvozCH-45">
          <mxGeometry relative="1" as="geometry">
            <mxPoint x="175" y="84.5" as="targetPoint" />
            <Array as="points">
              <mxPoint x="278.90625" y="65" />
              <mxPoint x="175" y="65" />
            </Array>
          </mxGeometry>
        </mxCell>
        <mxCell id="xhJQGYLbFev4tCfvozCH-50" value="Frame" style="edgeLabel;html=1;align=center;verticalAlign=middle;resizable=0;points=[];" vertex="1" connectable="0" parent="xhJQGYLbFev4tCfvozCH-49">
          <mxGeometry x="0.8174" y="1" relative="1" as="geometry">
            <mxPoint as="offset" />
          </mxGeometry>
        </mxCell>
        <mxCell id="xhJQGYLbFev4tCfvozCH-45" value="MegDecode" style="rounded=1;whiteSpace=wrap;html=1;fillColor=#f8cecc;strokeColor=#b85450;" vertex="1" parent="xhJQGYLbFev4tCfvozCH-70">
          <mxGeometry x="246.09374999999997" y="13" width="65.625" height="39" as="geometry" />
        </mxCell>
        <mxCell id="xhJQGYLbFev4tCfvozCH-46" value="Nori Writer" style="rounded=1;whiteSpace=wrap;html=1;fillColor=#f8cecc;strokeColor=#b85450;" vertex="1" parent="xhJQGYLbFev4tCfvozCH-70">
          <mxGeometry x="10.9375" y="84.5" width="328.1250000000001" height="39" as="geometry" />
        </mxCell>
        <mxCell id="xhJQGYLbFev4tCfvozCH-47" style="edgeStyle=orthogonalEdgeStyle;rounded=0;orthogonalLoop=1;jettySize=auto;html=1;exitX=0.5;exitY=1;exitDx=0;exitDy=0;" edge="1" parent="xhJQGYLbFev4tCfvozCH-70" source="xhJQGYLbFev4tCfvozCH-43" target="xhJQGYLbFev4tCfvozCH-46">
          <mxGeometry relative="1" as="geometry">
            <Array as="points">
              <mxPoint x="65.625" y="65" />
              <mxPoint x="175" y="65" />
            </Array>
          </mxGeometry>
        </mxCell>
        <mxCell id="xhJQGYLbFev4tCfvozCH-48" style="edgeStyle=orthogonalEdgeStyle;rounded=0;orthogonalLoop=1;jettySize=auto;html=1;exitX=0.5;exitY=1;exitDx=0;exitDy=0;entryX=0.5;entryY=0;entryDx=0;entryDy=0;" edge="1" parent="xhJQGYLbFev4tCfvozCH-70" source="xhJQGYLbFev4tCfvozCH-44" target="xhJQGYLbFev4tCfvozCH-46">
          <mxGeometry relative="1" as="geometry" />
        </mxCell>
        <mxCell id="xhJQGYLbFev4tCfvozCH-71" value="" style="group" vertex="1" connectable="0" parent="1">
          <mxGeometry x="930" y="220" width="350" height="130" as="geometry" />
        </mxCell>
        <mxCell id="xhJQGYLbFev4tCfvozCH-72" value="AJob" style="rounded=1;whiteSpace=wrap;html=1;fillColor=#dae8fc;strokeColor=#6c8ebf;labelPosition=center;verticalLabelPosition=top;align=center;verticalAlign=bottom;" vertex="1" parent="xhJQGYLbFev4tCfvozCH-71">
          <mxGeometry width="350" height="130" as="geometry" />
        </mxCell>
        <mxCell id="xhJQGYLbFev4tCfvozCH-73" value="&lt;font style=&quot;font-size: 8px;&quot;&gt;FFMpeg&lt;/font&gt;" style="rounded=1;whiteSpace=wrap;html=1;fillColor=#f8cecc;strokeColor=#b85450;" vertex="1" parent="xhJQGYLbFev4tCfvozCH-71">
          <mxGeometry x="32.8125" y="13" width="65.625" height="39" as="geometry" />
        </mxCell>
        <mxCell id="xhJQGYLbFev4tCfvozCH-74" value="OpenCV" style="rounded=1;whiteSpace=wrap;html=1;fillColor=#f8cecc;strokeColor=#b85450;" vertex="1" parent="xhJQGYLbFev4tCfvozCH-71">
          <mxGeometry x="142.18750000000003" y="13" width="65.625" height="39" as="geometry" />
        </mxCell>
        <mxCell id="xhJQGYLbFev4tCfvozCH-75" style="edgeStyle=orthogonalEdgeStyle;rounded=0;orthogonalLoop=1;jettySize=auto;html=1;exitX=0.5;exitY=1;exitDx=0;exitDy=0;" edge="1" parent="xhJQGYLbFev4tCfvozCH-71" source="xhJQGYLbFev4tCfvozCH-77">
          <mxGeometry relative="1" as="geometry">
            <mxPoint x="175" y="84.5" as="targetPoint" />
            <Array as="points">
              <mxPoint x="278.90625" y="65" />
              <mxPoint x="175" y="65" />
            </Array>
          </mxGeometry>
        </mxCell>
        <mxCell id="xhJQGYLbFev4tCfvozCH-76" value="Frame" style="edgeLabel;html=1;align=center;verticalAlign=middle;resizable=0;points=[];" vertex="1" connectable="0" parent="xhJQGYLbFev4tCfvozCH-75">
          <mxGeometry x="0.8174" y="1" relative="1" as="geometry">
            <mxPoint as="offset" />
          </mxGeometry>
        </mxCell>
        <mxCell id="xhJQGYLbFev4tCfvozCH-77" value="MegDecode" style="rounded=1;whiteSpace=wrap;html=1;fillColor=#f8cecc;strokeColor=#b85450;" vertex="1" parent="xhJQGYLbFev4tCfvozCH-71">
          <mxGeometry x="246.09374999999997" y="13" width="65.625" height="39" as="geometry" />
        </mxCell>
        <mxCell id="xhJQGYLbFev4tCfvozCH-78" value="Nori Writer" style="rounded=1;whiteSpace=wrap;html=1;fillColor=#f8cecc;strokeColor=#b85450;" vertex="1" parent="xhJQGYLbFev4tCfvozCH-71">
          <mxGeometry x="10.9375" y="84.5" width="328.1250000000001" height="39" as="geometry" />
        </mxCell>
        <mxCell id="xhJQGYLbFev4tCfvozCH-79" style="edgeStyle=orthogonalEdgeStyle;rounded=0;orthogonalLoop=1;jettySize=auto;html=1;exitX=0.5;exitY=1;exitDx=0;exitDy=0;" edge="1" parent="xhJQGYLbFev4tCfvozCH-71" source="xhJQGYLbFev4tCfvozCH-73" target="xhJQGYLbFev4tCfvozCH-78">
          <mxGeometry relative="1" as="geometry">
            <Array as="points">
              <mxPoint x="65.625" y="65" />
              <mxPoint x="175" y="65" />
            </Array>
          </mxGeometry>
        </mxCell>
        <mxCell id="xhJQGYLbFev4tCfvozCH-80" style="edgeStyle=orthogonalEdgeStyle;rounded=0;orthogonalLoop=1;jettySize=auto;html=1;exitX=0.5;exitY=1;exitDx=0;exitDy=0;entryX=0.5;entryY=0;entryDx=0;entryDy=0;" edge="1" parent="xhJQGYLbFev4tCfvozCH-71" source="xhJQGYLbFev4tCfvozCH-74" target="xhJQGYLbFev4tCfvozCH-78">
          <mxGeometry relative="1" as="geometry" />
        </mxCell>
        <mxCell id="xhJQGYLbFev4tCfvozCH-84" value="" style="group" vertex="1" connectable="0" parent="1">
          <mxGeometry x="860" y="280" width="50" height="10" as="geometry" />
        </mxCell>
        <mxCell id="xhJQGYLbFev4tCfvozCH-62" value="" style="ellipse;whiteSpace=wrap;html=1;aspect=fixed;" vertex="1" parent="xhJQGYLbFev4tCfvozCH-84">
          <mxGeometry width="10" height="10" as="geometry" />
        </mxCell>
        <mxCell id="xhJQGYLbFev4tCfvozCH-82" value="" style="ellipse;whiteSpace=wrap;html=1;aspect=fixed;" vertex="1" parent="xhJQGYLbFev4tCfvozCH-84">
          <mxGeometry x="20" width="10" height="10" as="geometry" />
        </mxCell>
        <mxCell id="xhJQGYLbFev4tCfvozCH-83" value="" style="ellipse;whiteSpace=wrap;html=1;aspect=fixed;" vertex="1" parent="xhJQGYLbFev4tCfvozCH-84">
          <mxGeometry x="40" width="10" height="10" as="geometry" />
        </mxCell>
        <mxCell id="xhJQGYLbFev4tCfvozCH-85" value="" style="group" vertex="1" connectable="0" parent="1">
          <mxGeometry x="500" y="370" width="345" height="90" as="geometry" />
        </mxCell>
        <mxCell id="xhJQGYLbFev4tCfvozCH-51" value="AJob" style="rounded=1;whiteSpace=wrap;html=1;labelPosition=center;verticalLabelPosition=top;align=center;verticalAlign=bottom;fillColor=#dae8fc;strokeColor=#6c8ebf;" vertex="1" parent="xhJQGYLbFev4tCfvozCH-85">
          <mxGeometry width="345" height="90" as="geometry" />
        </mxCell>
        <mxCell id="xhJQGYLbFev4tCfvozCH-66" value="IR Eliminate" style="rounded=1;whiteSpace=wrap;html=1;fillColor=#f8cecc;strokeColor=#b85450;" vertex="1" parent="xhJQGYLbFev4tCfvozCH-85">
          <mxGeometry x="34.014084507042256" y="15" width="272.11267605633805" height="60" as="geometry" />
        </mxCell>
        <mxCell id="xhJQGYLbFev4tCfvozCH-86" value="" style="group;" vertex="1" connectable="0" parent="1">
          <mxGeometry x="930" y="370" width="345" height="90" as="geometry" />
        </mxCell>
        <mxCell id="xhJQGYLbFev4tCfvozCH-87" value="AJob" style="rounded=1;whiteSpace=wrap;html=1;labelPosition=center;verticalLabelPosition=top;align=center;verticalAlign=bottom;fillColor=#dae8fc;strokeColor=#6c8ebf;" vertex="1" parent="xhJQGYLbFev4tCfvozCH-86">
          <mxGeometry width="345" height="90" as="geometry" />
        </mxCell>
        <mxCell id="xhJQGYLbFev4tCfvozCH-88" value="IR Eliminate" style="rounded=1;whiteSpace=wrap;html=1;fillColor=#f8cecc;strokeColor=#b85450;" vertex="1" parent="xhJQGYLbFev4tCfvozCH-86">
          <mxGeometry x="34.014084507042256" y="15" width="272.11267605633805" height="60" as="geometry" />
        </mxCell>
        <mxCell id="xhJQGYLbFev4tCfvozCH-89" value="" style="group" vertex="1" connectable="0" parent="1">
          <mxGeometry x="860" y="410" width="50" height="10" as="geometry" />
        </mxCell>
        <mxCell id="xhJQGYLbFev4tCfvozCH-90" value="" style="ellipse;whiteSpace=wrap;html=1;aspect=fixed;" vertex="1" parent="xhJQGYLbFev4tCfvozCH-89">
          <mxGeometry width="10" height="10" as="geometry" />
        </mxCell>
        <mxCell id="xhJQGYLbFev4tCfvozCH-91" value="" style="ellipse;whiteSpace=wrap;html=1;aspect=fixed;" vertex="1" parent="xhJQGYLbFev4tCfvozCH-89">
          <mxGeometry x="20" width="10" height="10" as="geometry" />
        </mxCell>
        <mxCell id="xhJQGYLbFev4tCfvozCH-92" value="" style="ellipse;whiteSpace=wrap;html=1;aspect=fixed;" vertex="1" parent="xhJQGYLbFev4tCfvozCH-89">
          <mxGeometry x="40" width="10" height="10" as="geometry" />
        </mxCell>
        <mxCell id="xhJQGYLbFev4tCfvozCH-97" value="" style="group" vertex="1" connectable="0" parent="1">
          <mxGeometry x="860" y="630" width="50" height="10" as="geometry" />
        </mxCell>
        <mxCell id="xhJQGYLbFev4tCfvozCH-98" value="" style="ellipse;whiteSpace=wrap;html=1;aspect=fixed;" vertex="1" parent="xhJQGYLbFev4tCfvozCH-97">
          <mxGeometry width="10" height="10" as="geometry" />
        </mxCell>
        <mxCell id="xhJQGYLbFev4tCfvozCH-99" value="" style="ellipse;whiteSpace=wrap;html=1;aspect=fixed;" vertex="1" parent="xhJQGYLbFev4tCfvozCH-97">
          <mxGeometry x="20" width="10" height="10" as="geometry" />
        </mxCell>
        <mxCell id="xhJQGYLbFev4tCfvozCH-100" value="" style="ellipse;whiteSpace=wrap;html=1;aspect=fixed;" vertex="1" parent="xhJQGYLbFev4tCfvozCH-97">
          <mxGeometry x="40" width="10" height="10" as="geometry" />
        </mxCell>
      </root>
    </mxGraphModel>
  </diagram>
</mxfile>
